HIERARCHY
ROOT Hips
{
    OFFSET 0.000000 0.000000 0.000000
    CHANNELS 6 Xposition Yposition Zposition Zrotation Xrotation Yrotation
    JOINT Spine
    {
        OFFSET -0.000000 14.517291 0.000000
        CHANNELS 3 Zrotation Xrotation Yrotation
        JOINT Spine1
        {
            OFFSET -0.000000 37.558300 0.000000
            CHANNELS 3 Zrotation Xrotation Yrotation
            JOINT Neck
            {
                OFFSET -0.000000 37.404057 3.400369
                CHANNELS 3 Zrotation Xrotation Yrotation
                JOINT Head
                {
                    OFFSET -0.000000 24.785618 -3.540803
                    CHANNELS 3 Zrotation Xrotation Yrotation
                    End Site
                    {
                        OFFSET -0.000000 35.408028 0.000000
                    }
                }
            }
            JOINT LeftShoulder
            {
                OFFSET 6.992933 33.973492 -0.192664
                CHANNELS 3 Zrotation Xrotation Yrotation
                JOINT LeftArm
                {
                    OFFSET 21.527611 0.000000 0.000000
                    CHANNELS 3 Zrotation Xrotation Yrotation
                    JOINT LeftForeArm
                    {
                        OFFSET 56.353916 0.000000 0.000000
                        CHANNELS 3 Zrotation Xrotation Yrotation
                        JOINT LeftHand
                        {
                            OFFSET 47.774071 0.000000 0.000000
                            CHANNELS 3 Zrotation Xrotation Yrotation
                            End Site
                            {
                                OFFSET 26.556021 0.000000 0.000000
                            }
                        }
                    }
                }
            }
            JOINT RightShoulder
            {
                OFFSET -7.065357 33.973492 -0.192664
                CHANNELS 3 Zrotation Xrotation Yrotation
                JOINT RightArm
                {
                    OFFSET -21.527611 0.000000 0.000000
                    CHANNELS 3 Zrotation Xrotation Yrotation
                    JOINT RightForeArm
                    {
                        OFFSET -56.353916 0.000000 0.000000
                        CHANNELS 3 Zrotation Xrotation Yrotation
                        JOINT RightHand
                        {
                            OFFSET -47.774071 0.000000 0.000000
                            CHANNELS 3 Zrotation Xrotation Yrotation
                            End Site
                            {
                                OFFSET -26.556021 0.000000 0.000000
                            }
                        }
                    }
                }
            }
        }
    }
    JOINT LeftUpLeg
    {
        OFFSET 17.704014 0.000000 0.000000
        CHANNELS 3 Zrotation Xrotation Yrotation
        JOINT LeftLeg
        {
            OFFSET -0.000000 -81.181816 0.000000
            CHANNELS 3 Zrotation Xrotation Yrotation
            JOINT LeftFoot
            {
                OFFSET -0.000000 -62.821102 0.000000
                CHANNELS 3 Zrotation Xrotation Yrotation
                JOINT LeftToeBase
                {
                    OFFSET -0.000000 -11.507608 26.556021
                    CHANNELS 3 Zrotation Xrotation Yrotation
                    End Site
                    {
                        OFFSET -0.000000 0.000000 7.081605
                    }
                }
            }
        }
    }
    JOINT RightUpLeg
    {
        OFFSET -17.704014 0.000000 0.000000
        CHANNELS 3 Zrotation Xrotation Yrotation
        JOINT RightLeg
        {
            OFFSET -0.000000 -81.181816 0.000000
            CHANNELS 3 Zrotation Xrotation Yrotation
            JOINT RightFoot
            {
                OFFSET -0.000000 -62.821102 0.000000
                CHANNELS 3 Zrotation Xrotation Yrotation
                JOINT RightToeBase
                {
                    OFFSET -0.000000 -11.507608 26.556021
                    CHANNELS 3 Zrotation Xrotation Yrotation
                    End Site
                    {
                        OFFSET -0.000000 0.000000 7.081605
                    }
                }
            }
        }
    }
}
MOTION
Frames:    5
Frame Time:    0.008333
27.681965    153.627716    -3.639203    2.997421    -0.752804    -37.968109    3.744959    0.785523    2.696547    -3.006727    1.466988    0.944783    18.056114    5.827333    17.029766    -14.575758    -2.443600    13.638725    0.104013    9.049476    -12.696389    -33.894409    6.653765    -40.752960    34.364029    -41.273064    -42.245335    -19.611832    -24.545767    -35.268963    -6.564456    4.925629    -1.391595    35.604996    7.181207    77.613861    8.578853    -5.416905    89.817795    7.348068    -12.476034    22.035559    6.441530    -29.286177    0.517141    -20.985300    28.949919    1.815654    6.574763    -1.755599    38.734634    0.000000    0.000000    0.000000    -4.214380    1.393569    -3.928274    3.986920    35.023972    2.247650    -5.238841    -33.959431    -16.288925    0.000000    0.000000    0.000000    
27.704548    153.640900    -3.597885    3.004212    -0.778441    -37.982513    3.786926    0.781268    2.738644    -3.032580    1.458002    0.958990    18.053782    5.838794    17.025023    -14.595604    -2.475920    13.628627    0.098470    9.043624    -12.653705    -33.974613    6.805613    -40.722031    34.438721    -41.346939    -42.322594    -19.717459    -24.542652    -35.305923    -6.570060    4.933042    -1.397295    35.577015    7.201271    77.579079    8.411000    -5.422478    89.781166    7.426520    -12.284327    22.212870    6.416747    -29.246128    0.527551    -20.996687    28.921806    1.853397    6.573490    -1.754942    38.701221    0.000000    0.000000    0.000000    -4.248562    1.409898    -3.980486    3.928756    35.029179    2.252708    -5.151546    -33.952812    -16.195042    0.000000    0.000000    0.000000    
27.727896    153.648621    -3.562221    3.017371    -0.794826    -38.012329    3.815069    0.773202    2.790298    -3.038730    1.441869    0.975817    18.049885    5.839628    17.010704    -14.621001    -2.487596    13.608562    0.093240    9.045445    -12.616509    -34.058025    6.938793    -40.682503    34.506943    -41.406384    -42.413013    -19.779938    -24.538136    -35.313793    -6.581486    4.945418    -1.402428    35.566525    7.193749    77.563522    8.246516    -5.406516    89.745811    7.510314    -12.074523    22.380938    6.402665    -29.222446    0.555288    -21.005850    28.911406    1.871040    6.583445    -1.761008    38.678291    0.000000    0.000000    0.000000    -4.276968    1.395132    -4.034934    3.842721    35.067448    2.293716    -5.069771    -33.949802    -16.117104    0.000000    0.000000    0.000000    
27.752432    153.651962    -3.531313    3.035397    -0.801639    -38.049904    3.839763    0.753105    2.836152    -3.033631    1.436833    0.990763    18.025616    5.831141    17.017103    -14.626497    -2.500272    13.613813    0.072220    9.039521    -12.566573    -34.127186    7.049796    -40.649017    34.540089    -41.473709    -42.508331    -19.800682    -24.571690    -35.299149    -6.608181    4.955136    -1.390149    35.559513    7.173380    77.562561    8.117831    -5.404188    89.724884    7.631404    -11.908681    22.535242    6.397093    -29.208988    0.590757    -21.016804    28.895853    1.879889    6.586196    -1.768591    38.668285    0.000000    0.000000    0.000000    -4.313620    1.364429    -4.048313    3.812217    35.113194    2.315995    -5.022458    -33.951500    -16.077103    0.000000    0.000000    0.000000    
27.778996    153.647232    -3.502962    3.048461    -0.808896    -38.101044    3.860427    0.749338    2.891436    -3.021479    1.415723    1.008477    18.024691    5.825449    17.017260    -14.665816    -2.499191    13.606921    0.052327    9.040345    -12.523708    -34.209831    7.119654    -40.615356    34.551998    -41.514904    -42.619404    -19.832602    -24.575319    -35.273174    -6.624779    4.956595    -1.375439    35.549629    7.156009    77.559486    8.026536    -5.416120    89.717255    7.766872    -11.791597    22.702522    6.402412    -29.195601    0.609021    -21.056404    28.875523    1.930286    6.610088    -1.782817    38.678242    0.000000    0.000000    0.000000    -4.344474    1.331321    -4.047444    3.777666    35.162804    2.323745    -4.976412    -33.964424    -16.023020    0.000000    0.000000    0.000000    
